<svg width="78" height="18" viewBox="0 0 78 18" fill="none" xmlns="http://www.w3.org/2000/svg">
<path fill-rule="evenodd" clip-rule="evenodd" d="M0 0V3.68146H4.76485V18.2746H8.9749V3.68146H13.2828L14.7188 0H0Z" fill="white"/>
<path fill-rule="evenodd" clip-rule="evenodd" d="M20.0059 6.3016V0H16.0895V18.2746H20.0059V9.71773C20.6586 9.12074 21.964 8.19208 23.2368 8.19208C24.2485 8.19208 24.8033 8.68957 25.0971 9.31973C25.2929 9.81723 25.3908 10.3479 25.3908 11.177V18.2415H29.3071V10.4474C29.3071 9.0544 29.1766 8.29158 28.9155 7.59509C28.2628 5.73777 26.6636 4.67645 24.4117 4.67645C22.4862 4.67645 21.1808 5.37294 20.0059 6.3016Z" fill="white"/>
<path fill-rule="evenodd" clip-rule="evenodd" d="M52.8703 7.76092V3.68146H61.2577L62.6284 0H48.6602V18.2746H52.8703V11.575H58.3205L59.7565 7.76092H52.8703Z" fill="white"/>
<path fill-rule="evenodd" clip-rule="evenodd" d="M38.0209 4.67627C33.9741 4.67627 31.4285 7.46224 31.4285 11.6412C31.4285 15.9528 33.9741 18.6393 38.3473 18.6393C40.2402 18.6393 41.5456 18.3076 42.4268 17.9428L43.4711 14.8915C42.4921 15.2895 40.7297 15.7538 38.7716 15.7538C36.3565 15.7538 35.149 14.6593 34.9205 12.9015H44.385C44.8419 8.22506 42.2963 4.67627 38.0209 4.67627ZM34.9205 10.3145C35.0511 8.68939 36.226 7.52857 37.8578 7.52857C39.6201 7.52857 40.5992 8.72256 40.795 10.3145H34.9205Z" fill="white"/>
<path fill-rule="evenodd" clip-rule="evenodd" d="M71.1138 0H66.2184L59.3649 18.2746H63.6075L64.8804 14.6595H72.2887L73.4636 18.2746H77.8368L71.1138 0ZM66.0879 11.0444L68.5029 4.14579H68.6335L70.9833 11.0444H66.0879Z" fill="white"/>
</svg>
