<svg width="261" height="148" viewBox="0 0 261 148" fill="none" xmlns="http://www.w3.org/2000/svg">
<path d="M3.28184 88.5685L14.8638 86.0553L19.4132 59.6413L27.2271 57.9428L28.8594 48.4448L1.63224 54.3377L0 63.8357L7.81391 62.1371L3.28184 88.5685Z" fill="white"/>
<path d="M44.8519 79.5731L57.3715 76.8693L52.4921 63.6969C56.2949 60.9931 59.3858 56.8681 60.1151 52.6564C61.3479 45.4809 57.823 42.1879 50.7904 43.7131L32.0891 47.7688L25.9075 83.6807L37.4894 81.1676L39.7641 67.9259L41.0491 67.6486L44.8519 79.5731ZM46.9703 53.679C48.0643 53.4363 48.7588 53.835 48.5505 55.0656C48.3595 56.1921 47.4391 57.1281 46.3452 57.3707L41.3964 58.4453L42.0389 54.7536L46.9703 53.679Z" fill="white"/>
<path d="M80.7783 71.7915L92.8118 69.1917L90.3808 35.1343L73.1554 38.8607L58.3784 76.6445L70.4119 74.0447L71.7315 70.249L80.7436 68.3078L80.7783 71.7915ZM75.0828 60.2831L79.7712 46.5734L80.4658 46.4174L80.622 59.0698L75.0828 60.2831Z" fill="white"/>
<path d="M95.0347 68.7063L106.617 66.1932L109.551 49.1558L109.951 49.0691L117.764 63.784L129.346 61.2709L135.528 25.3589L123.929 27.8894L120.89 45.5334L120.543 45.6027L112.781 30.2812L101.199 32.7943L95.0347 68.7063Z" fill="white"/>
<path d="M153.587 56.0362L165.915 53.3671L158.292 37.3349L171.611 17.5591L159.282 20.2282L154.177 27.7503L153.778 27.837L151.017 22.0134L138.497 24.7172L145.877 40.0214L131.829 60.7505L144.349 58.0467L149.975 49.658L150.479 49.554L153.587 56.0362Z" fill="#00FF87"/>
<path d="M197.223 21.1125L198.838 11.6665L174.545 16.9181L168.364 52.8301L179.946 50.3169L182.22 37.0753L194.931 34.3195L196.563 24.8215L183.853 27.5773L184.495 23.8336L197.223 21.1125Z" fill="white"/>
<path d="M226.274 14.821L227.888 5.375L203.544 10.6439L197.362 46.5559L221.707 41.287L223.322 31.841L210.559 34.5968L211.219 30.8011L223.981 28.0453L225.614 18.5474L212.851 21.3031L213.493 17.5594L226.274 14.821Z" fill="white"/>
<path d="M245.131 36.2259L257.651 33.5221L252.771 20.3497C256.574 17.6459 259.665 13.5209 260.394 9.30923C261.627 2.13377 258.102 -1.15932 251.07 0.365901L232.351 4.4216L226.169 40.3336L237.751 37.8204L240.026 24.5787L241.311 24.3014L245.131 36.2259ZM247.25 10.3318C248.344 10.0892 249.038 10.4878 248.83 11.7184C248.639 12.845 247.718 13.7809 246.625 14.0235L241.676 15.0981L242.318 11.4064L247.25 10.3318Z" fill="white"/>
<path d="M48.012 147.151L59.5939 144.638L62.8237 125.867L63.1189 125.798L67.3036 133.095L67.703 133.008L75.3086 123.164L75.6038 123.094L72.374 141.865L83.956 139.352L90.1029 103.457L78.382 105.988L70.4639 116.837L70.0646 116.924L65.9145 108.691L54.1936 111.222L48.012 147.151Z" fill="white"/>
<path d="M108.579 134.031L120.612 131.431L118.181 97.3735L100.956 101.1L86.1787 138.884L98.2121 136.284L99.5318 132.488L108.544 130.547L108.579 134.031ZM102.883 122.522L107.571 108.813L108.266 108.657L108.422 121.309L102.883 122.522Z" fill="white"/>
<path d="M141.779 126.855L154.298 124.151L149.419 110.979C153.222 108.275 156.313 104.15 157.042 99.9386C158.275 92.7632 154.75 89.4701 147.717 90.9953L129.016 95.051L122.834 130.963L134.416 128.45L136.691 115.208L137.976 114.931L141.779 126.855ZM143.897 100.944C144.991 100.701 145.686 101.1 145.477 102.33C145.286 103.457 144.366 104.393 143.272 104.636L138.323 105.71L138.966 102.018L143.897 100.944Z" fill="white"/>
<path d="M172.045 111.013L175.535 119.541L187.707 116.906L180.241 99.349L193.577 81.0464L182.047 83.5422L173.712 94.9293L173.556 94.964L175.275 85.0154L163.693 87.5286L157.511 123.441L169.093 120.927L170.517 112.66L171.698 111.065L172.045 111.013Z" fill="white"/>
<path d="M219.571 84.5129L221.186 75.0669L196.841 80.3358L190.677 116.265L215.021 110.996L216.636 101.55L203.874 104.323L204.533 100.528L217.296 97.7719L218.928 88.2739L206.166 91.0297L206.808 87.286L219.571 84.5129Z" fill="white"/>
<path d="M226.065 108.605L237.647 106.091L242.197 79.6775L250.011 77.9789L251.643 68.481L224.416 74.3739L222.783 83.8718L230.597 82.1733L226.065 108.605Z" fill="white"/>
<path fill-rule="evenodd" clip-rule="evenodd" d="M133.618 71.1499L256.053 45.2212L253.726 57.5269L131.291 83.4557L133.618 71.1499Z" fill="#00FF87"/>
</svg>
