<svg width="64" height="64" viewBox="0 0 64 64" fill="none" xmlns="http://www.w3.org/2000/svg">
<path d="M31.5 61.6201C24.0758 57.062 19.4787 49.8327 16.7812 42.5635C14.0488 35.2 13.2858 27.8431 13.4883 23.3008L31.5 13.3477V61.6201Z" stroke="#00FF87"/>
<path d="M32.5 61.6201C39.9242 57.062 44.5213 49.8327 47.2188 42.5635C49.9512 35.2 50.7142 27.8431 50.5117 23.3008L32.5 13.3477V61.6201Z" stroke="#00FF87"/>
<path d="M32 13.5L14 23.5L30.7 60.52L32 61.4L33.3 60.52L50 23.5L32 13.5Z" fill="#152112"/>
<path d="M32 15.5L31.9999 58.5C19.1999 51.1099 15.8333 32.7541 16 24.5L32 15.5Z" fill="#00FF87"/>
<path d="M32 15.5L31.9999 58.5C44.7999 51.1099 48.1666 32.7541 48 24.5L32 15.5Z" fill="#287B49"/>
<path d="M32.61 42.2536L36.6388 41.2648L34.1478 35.3258L38.5 28L34.4712 28.9888L32.8029 31.7753L32.6724 31.8074L31.7702 29.6501L27.679 30.6517L30.0906 36.321L25.5 44L29.5912 42.9984L31.4297 39.8909L31.5943 39.8523L32.61 42.2536Z" fill="#152112"/>
<path d="M33.1492 3.4344L32.0392 0L30.9162 3.4344H27.312L30.2371 5.54989L29.1141 8.98429L32.0392 6.8688L34.9513 8.98429L33.8413 5.54989L36.7532 3.4344H33.1492Z" fill="#00FF87"/>
<path d="M22.7023 5.99388L21.5923 2.55948L20.4823 5.99388H16.8782L19.7902 8.10937L18.6803 11.5438L21.5923 9.42828L24.5174 11.5438L23.3944 8.10937L26.3195 5.99388H22.7023Z" fill="#00FF87"/>
<path d="M12.3338 9.50662L11.2238 12.941H7.61963L10.5317 15.0565L9.42171 18.4909L12.3338 16.3624L15.2589 18.4909L14.1359 15.0565L17.061 12.941H13.4568L12.3338 9.50662Z" fill="#00FF87"/>
<path d="M42.3946 2.55948L41.2846 5.99388H37.6804L40.5925 8.10937L39.4825 11.5438L42.3946 9.42828L45.3195 11.5438L44.1965 8.10937L47.1218 5.99388H43.5176L42.3946 2.55948Z" fill="#00FF87"/>
<path d="M52.776 12.941L51.6529 9.50662L50.5429 12.941H46.9387L49.8509 15.0565L48.7409 18.4909L51.6529 16.3624L54.578 18.4909L53.4551 15.0565L56.3802 12.941H52.776Z" fill="#00FF87"/>
</svg>
