<svg width="64" height="64" viewBox="0 0 64 64" fill="none" xmlns="http://www.w3.org/2000/svg">
<g clip-path="url(#clip0_361_264)">
<path d="M41.5456 17.4445C39.8048 16.9307 37.6574 15.9505 35.732 14.1446C39.068 13.93 40.9909 13.7726 41.0171 13.7705C43.2028 13.6398 44.161 14.4574 44.5489 17.1639C44.6319 17.7442 44.7273 18.5608 44.8197 19.5337C44.1469 18.6467 43.1005 17.9047 41.5456 17.4445Z" fill="#00FF87"/>
<path d="M54.3827 61.8682C53.4482 61.376 52.531 60.8506 51.6326 60.2954C51.6222 60.2889 51.6118 60.2822 51.6014 60.2757L48.8303 62.0195C48.4857 62.2362 47.9732 62.1786 47.6854 61.8909L45.8048 60.0102C45.517 59.7224 45.4594 59.2099 45.6762 58.8654L46.8601 56.984C45.6673 56.0693 44.5039 55.1151 43.3648 54.1334L41.8616 55.0537C41.5145 55.2662 40.9998 55.2052 40.712 54.9174L38.665 52.8704C38.3772 52.5827 38.3162 52.0679 38.5287 51.7208L39.3044 50.4539C38.16 49.3714 37.033 48.2706 35.9208 47.155C30.6029 41.8216 25.6479 36.1487 20.489 30.6655L18.6186 31.8107C18.2715 32.0232 17.7569 31.9623 17.469 31.6744L15.422 29.6274C15.1342 29.3396 15.0732 28.8249 15.2857 28.4778L16.5175 26.466C15.8735 25.7822 15.2129 25.0796 14.5587 24.3828L12.4697 25.6618C12.1226 25.8743 11.6078 25.8133 11.3201 25.5255L9.27304 23.4785C8.98521 23.1906 8.92425 22.6759 9.13674 22.3289L10.5196 20.0703C9.7058 19.1999 9.04019 18.487 8.61731 18.0338C8.33954 17.7362 8.28375 17.2117 8.49504 16.8637C9.65962 14.9454 13.0775 9.00519 15.3384 6.47992C15.677 6.10158 16.0092 5.75047 16.3356 5.42405C16.8703 4.8893 17.3856 4.42949 17.889 4.02074C17.9661 7.56459 19.2702 13.1026 21.2842 17.5948C23.7506 23.0984 25.4927 27.307 24.8741 30.6126C25.4311 31.2412 25.9968 31.8807 26.5707 32.5305L29.9687 36.4167C30.0891 36.5551 30.2099 36.6937 30.3305 36.8324C30.4299 35.3939 30.4018 31.1063 27.3288 25.9819C23.6899 19.9174 18.7329 9.81636 18.9102 3.2523C19.4669 2.86757 20.1612 2.70946 20.6798 2.44927C20.9604 5.07159 22.0978 11.3644 26.6954 19.452C31.4968 27.8945 35.9534 34.7979 34.7086 41.8161C36.3713 43.6776 38.0696 45.5293 39.8246 47.3424C40.1199 45.6889 41.0313 38.0295 34.702 28.7213C27.8115 18.5886 22.8838 9.63161 22.1407 1.83849C23.482 1.38511 24.5762 1.19654 25.6678 1.09583C27.1592 0.958272 30.0305 0.353969 31.1122 1.74471C31.6606 2.44988 31.4362 3.29302 31.2077 4.07041C30.9461 4.95988 30.7538 5.84733 30.7366 6.77907C30.7028 8.60891 31.236 10.4461 32.0937 12.052C34.1351 15.8734 38.6268 18.2712 41.0178 18.9377C42.5845 19.3733 44.2941 20.4917 44.6393 22.1852C44.7576 22.7656 44.7475 23.3579 44.7773 23.9463C44.7873 24.1422 44.8037 24.342 44.822 24.543L41.1773 24.9822C40.6871 25.0348 40.3329 25.4792 40.3875 25.9683C40.4426 26.4589 40.885 26.8132 41.3757 26.7581L45.0597 26.3151C45.2035 27.1158 46.6692 32.1008 46.9973 32.96L43.8633 33.8553C43.3862 33.9702 43.0897 34.4536 43.2052 34.9332C43.3216 35.414 43.8038 35.7083 44.2863 35.5933L47.6684 34.6388C48.3201 36.1985 49.0435 37.7237 49.7682 39.2503C50.0809 39.909 50.3778 40.5784 50.732 41.2161C51.2013 42.0609 51.6703 42.9059 52.142 43.7494C52.7385 44.8164 53.3322 45.885 53.9365 46.9476C54.3394 47.656 54.7553 48.3536 55.1803 49.0489C56.1759 50.6775 57.1928 52.3132 57.9947 54.0487C58.5245 55.1957 59.064 56.5399 58.6945 57.8148C58.5333 58.371 58.1848 59.0652 57.7712 59.4788C57.7414 59.5086 56.3442 60.9025 55.5592 61.6858C55.2711 61.9732 54.7428 62.0579 54.3827 61.8682Z" fill="#00FF87"/>
</g>
<defs>
<clipPath id="clip0_361_264">
<rect width="64" height="64" fill="white"/>
</clipPath>
</defs>
</svg>
