<svg width="25" height="20" viewBox="0 0 25 20" fill="none" xmlns="http://www.w3.org/2000/svg">
<path id="Vector" fill-rule="evenodd" clip-rule="evenodd" d="M25 3.33333V16.6667C25 18.5026 23.4685 20 21.5909 20H3.40909C1.5315 20 0 18.5026 0 16.6667V3.33333C0 1.49239 1.52631 0 3.40909 0H21.5909C23.4737 0 25 1.49239 25 3.33333ZM2.39384 2.83772C2.58177 2.47436 2.96823 2.22222 3.40909 2.22222H21.5909C22.0318 2.22222 22.4182 2.47436 22.6061 2.83772L12.5 9.75478L2.39384 2.83772ZM2.27273 5.4674L11.1967 11.5753C11.9792 12.111 13.0208 12.111 13.8033 11.5753L22.7273 5.4674V16.6667C22.7273 17.2752 22.2133 17.7778 21.5909 17.7778H3.40909C2.78668 17.7778 2.27273 17.2752 2.27273 16.6667V5.4674Z" fill="#008A49"/>
</svg>
